<svg width="36" height="36" viewBox="0 0 36 36" fill="none" xmlns="http://www.w3.org/2000/svg">
<path d="M36 34.7143C36 35.0553 35.8645 35.3823 35.6234 35.6234C35.3823 35.8645 35.0553 36 34.7143 36H3.85714C2.83416 36 1.85309 35.5936 1.12973 34.8703C0.406377 34.1469 0 33.1658 0 32.1429V1.28571C0 0.944722 0.135459 0.617695 0.376577 0.376577C0.617695 0.135459 0.944722 0 1.28571 0C1.62671 0 1.95373 0.135459 2.19485 0.376577C2.43597 0.617695 2.57143 0.944722 2.57143 1.28571V32.1429C2.57143 32.4838 2.70689 32.8109 2.94801 33.052C3.18912 33.2931 3.51615 33.4286 3.85714 33.4286H34.7143C35.0553 33.4286 35.3823 33.564 35.6234 33.8051C35.8645 34.0463 36 34.3733 36 34.7143Z" fill="black"/>
<path d="M23.1429 6.42854C23.1429 6.08754 23.2783 5.76052 23.5194 5.5194C23.7606 5.27828 24.0876 5.14282 24.4286 5.14282H34.7143C35.0553 5.14282 35.3823 5.27828 35.6234 5.5194C35.8645 5.76052 36 6.08754 36 6.42854V16.7143C36 17.0552 35.8645 17.3823 35.6234 17.6234C35.3823 17.8645 35.0553 18 34.7143 18C34.3733 18 34.0463 17.8645 33.8052 17.6234C33.564 17.3823 33.4286 17.0552 33.4286 16.7143V9.53225L21.4817 21.4817C21.3623 21.6014 21.2204 21.6964 21.0642 21.7612C20.908 21.826 20.7406 21.8594 20.5714 21.8594C20.4023 21.8594 20.2349 21.826 20.0787 21.7612C19.9225 21.6964 19.7806 21.6014 19.6612 21.4817L15.4286 17.2465L7.33887 25.3388C7.09744 25.5802 6.77001 25.7159 6.42858 25.7159C6.08716 25.7159 5.75972 25.5802 5.5183 25.3388C5.27687 25.0974 5.14124 24.77 5.14124 24.4285C5.14124 24.0871 5.27687 23.7597 5.5183 23.5183L14.5183 14.5183C14.6377 14.3985 14.7796 14.3035 14.9358 14.2387C15.092 14.1739 15.2595 14.1405 15.4286 14.1405C15.5977 14.1405 15.7652 14.1739 15.9214 14.2387C16.0776 14.3035 16.2194 14.3985 16.3389 14.5183L20.5714 18.7534L31.6106 7.71425H24.4286C24.0876 7.71425 23.7606 7.57879 23.5194 7.33767C23.2783 7.09656 23.1429 6.76953 23.1429 6.42854Z" fill="black"/>
</svg>
