<svg width="52" height="52" viewBox="0 0 52 52" fill="none" xmlns="http://www.w3.org/2000/svg">
<path d="M3.25 16.25V46.3125C3.25 46.528 3.3356 46.7347 3.48798 46.887C3.64035 47.0394 3.84701 47.125 4.0625 47.125H17.875V16.25C17.875 15.819 17.7038 15.4057 17.399 15.101C17.0943 14.7962 16.681 14.625 16.25 14.625H4.875C4.44402 14.625 4.0307 14.7962 3.72595 15.101C3.4212 15.4057 3.25 15.819 3.25 16.25V16.25Z" stroke="black" stroke-width="3" stroke-linecap="round" stroke-linejoin="round"/>
<path d="M32.5 4.875H19.5C19.069 4.875 18.6557 5.0462 18.351 5.35095C18.0462 5.6557 17.875 6.06902 17.875 6.5V47.125H34.125V6.5C34.125 6.06902 33.9538 5.6557 33.649 5.35095C33.3443 5.0462 32.931 4.875 32.5 4.875V4.875Z" stroke="black" stroke-width="3" stroke-linecap="round" stroke-linejoin="round"/>
<path d="M47.125 21.125H35.75C35.319 21.125 34.9057 21.2962 34.601 21.601C34.2962 21.9057 34.125 22.319 34.125 22.75V47.125H47.9375C48.153 47.125 48.3597 47.0394 48.512 46.887C48.6644 46.7347 48.75 46.528 48.75 46.3125V22.75C48.75 22.319 48.5788 21.9057 48.274 21.601C47.9693 21.2962 47.556 21.125 47.125 21.125Z" stroke="black" stroke-width="3" stroke-linecap="round" stroke-linejoin="round"/>
</svg>
