<svg width="386" height="77" viewBox="0 0 386 77" fill="none" xmlns="http://www.w3.org/2000/svg">
<g clip-path="url(#clip0)">
<path d="M165.682 33.9552L160.09 59.5706H145.52L151.112 33.9552C151.551 31.9418 151.297 31.5706 149.232 31.5706H143.972C141.921 31.5706 141.491 31.9418 141.058 33.9039C141.058 33.9039 141.058 33.9381 141.058 33.9552L135.465 59.5706H120.882L126.479 33.9552C126.918 31.9418 126.663 31.5706 124.595 31.5706H119.335C117.266 31.5706 116.849 31.9459 116.411 33.9552L110.814 59.5706H96.2445L104.831 20.2495H116.665L118.541 23.6279C119.621 22.5221 120.927 21.6498 122.375 21.0677C123.824 20.4856 125.382 20.2068 126.948 20.2495H129.968C135.666 20.2495 139.51 22.6596 140.887 26.7334C143.433 22.2031 147.124 20.2495 151.581 20.2495H154.605C163.165 20.2495 167.518 25.6286 165.682 33.9552Z" fill="white"/>
<path d="M210.114 33.9551L207.514 45.865C205.695 54.1916 198.989 59.5705 190.42 59.5705H179.384C170.827 59.5705 166.474 54.1873 168.295 45.8607L170.893 33.9551C172.707 25.6285 179.414 20.2494 187.987 20.2494H199.042C207.58 20.2494 211.937 25.6285 210.114 33.9551ZM195.531 33.9551C195.969 31.9417 195.714 31.5705 193.65 31.5705H188.391C186.322 31.5705 185.905 31.946 185.467 33.9551L182.864 45.8607C182.425 47.8741 182.683 48.2452 184.747 48.2452H190.008C192.072 48.2452 192.494 47.8697 192.932 45.8607L195.531 33.9551Z" fill="white"/>
<path d="M301.042 30.824C300.509 33.0591 299.221 35.0564 297.385 36.4974L289.965 42.4693C288.186 43.9254 285.947 44.7444 283.624 44.7898H273.348L273.117 45.8435C272.678 47.8569 272.933 48.228 275.002 48.228H297.232L294.761 59.5533H269.62C261.063 59.5533 256.71 54.1701 258.529 45.8435L261.129 33.9379C262.948 25.6112 269.654 20.2322 278.223 20.2322H289.286C297.821 20.2493 302.234 25.3468 301.042 30.824ZM285.779 33.955C286.218 31.9416 285.964 31.5704 283.895 31.5704H278.635C276.575 31.5661 276.137 31.9457 275.698 33.955L274.821 38.0543H283.5C283.889 38.0386 284.263 37.8997 284.564 37.6587C284.864 37.4177 285.075 37.0878 285.166 36.7191L285.779 33.955Z" fill="white"/>
<path d="M317.42 52.8945C316.614 56.5843 313.62 59.5747 309.093 59.5747C304.565 59.5747 302.882 56.5886 303.688 52.8945C304.495 49.2005 307.489 46.2188 312.016 46.2188C316.545 46.2188 318.214 49.2005 317.42 52.8945Z" fill="#4CD62B"/>
<path d="M348.68 20.2493L346.208 31.5662L340.072 59.5663H325.506L331.644 31.5662H324.371L326.848 20.245L348.68 20.2493ZM337.863 12.9081C335.338 10.178 336.109 5.49431 339.577 2.45287C343.043 -0.588564 347.905 -0.835974 350.442 1.89833C352.98 4.63265 352.196 9.31637 348.728 12.3578C345.262 15.3993 340.392 15.6467 337.863 12.9081Z" fill="white"/>
<path d="M372.061 25.9101L367.704 45.8608C367.265 47.8742 367.52 48.2453 369.584 48.2453H378.644L376.172 59.5706H364.211C355.654 59.5706 351.299 54.1874 353.117 45.8608L357.473 25.9101H351.964L354.436 14.5847H359.959L361.985 5.31104H376.566L374.542 14.5847H386.008L383.522 25.9101H372.061Z" fill="white"/>
<path d="M39.3856 5.76746H57.8737L42.4933 77.0002H24.0052L39.3856 5.76746Z" fill="white"/>
<path d="M66.5134 5.76746H85.0014L73.018 61.5798H54.5256L66.5134 5.76746Z" fill="white"/>
<path d="M11.9871 5.76746H30.4752L18.4917 61.5798H-0.000732422L11.9871 5.76746Z" fill="white"/>
<path d="M264.066 20.2494L237.052 59.5705H222.149L212.297 20.2494H228.256L232.546 46.0696L248.107 20.2708L264.066 20.2494Z" fill="white"/>
</g>
<defs>
<clipPath id="clip0">
<rect width="386" height="77" fill="white"/>
</clipPath>
</defs>
</svg>
